<!--?xml version="1.0" encoding="utf-8"?-->
<!-- Generator: Adobe Illustrator 18.1.1, SVG Export Plug-In . SVG Version: 6.00 Build 0)  -->

<svg version="1.1" id="_x31_0" xmlns="http://www.w3.org/2000/svg" xmlns:xlink="http://www.w3.org/1999/xlink" x="0px" y="0px" viewBox="0 0 512 512" style="width: 256px; height: 256px; opacity: 1;" xml:space="preserve">
<style type="text/css">
	.st0{fill:#374149;}
</style>
<g>
	<path class="st0" d="M509.752,404.835c0.038-1.66,0.027-3.195-0.02-4.668c-0.008-0.222,0-0.473-0.008-0.687
		c-0.199-5.086-0.898-9.004-2.062-11.446c-79.523-1.882-161.452-6.281-164.663-7.703c-2.683-1.21-20.039-3.918-25.507-4.75
		c-0.817-0.149-1.367-0.258-1.606-0.328c0.882-0.723,16.652-13.875,11.937-22.934c-4.851-9.332-3.254-16.453-5.828-17.203
		c-2.59-0.75,14.793-43.773,9.114-48.562c-5.68-4.789-4.422-3.445-13.547-3.812c-9.105-0.367-18.953,1.195-18.534-9.219
		c0.418-10.414-4.196-25.613-5.758-35.461c-1.562-9.847-0.602-17.64,0.168-20.21c0.75-2.594,4.473,2.137,5.859,0.234
		c1.367-1.902-0.003-24.23-21.414-51.512c-6.168-7.863-19.191-23.87-28.77-31.054c-1.308-1.012-2.546-1.859-3.695-2.508
		c3.621-1.133,7.012-2.098,10.187-2.922c1.305,0.817,2.856,1.594,4.504,2.34c2.848,1.289,5.93,2.473,8.391,3.625
		c3.785,1.758,6.534,4.863,9.57,7.238c2.981,2.347,6.223,3.984,10.938,3c7.496-1.547,21.961,7.086,27.855,10.882
		c1.363,0.926,2.34,1.645,2.45,1.797c-0.004-0.004-0.082-0.125-0.215-0.324c0.172,0.118,0.301,0.207,0.348,0.238
		c-0.219-0.34-3.016-4.578-7.074-10.176c-0.66-0.953-1.351-1.945-2.078-2.984c9.785-0.149,19.289-4.645,25.14-12.719
		c1.301-1.718,2.485-3.534,3.394-5.523c-0.042,0.039-0.133,0.106-0.262,0.18c0.043-0.106,0.11-0.191,0.153-0.297
		c-0.266,0.246-2.918,2.011-19.508,1.606c-0.481-0.047-0.938-0.07-1.446-0.145c2.602-1.219,5.379-3.012,8.336-5.664
		c4.203-3.778-17.148,0.984-22.394,1.156c-5.386,0.176-15.039,0.688-3.554-8.949c11.488-9.66,3.382-11.055,3.382-11.055
		s-15.031,2.363-25.148,0.782c-11.668-1.82-19.66-11.519-20.836-13.019c-0.102-0.145-0.176-0.254-0.207-0.317
		c0.195-0.07,14.328-5.234,10.348-14.738c-1.782-4.242-4.821-3.695-16.77-4.664c-7.222-0.586-6.629-0.09-12.141-0.871l-2.832-7
		l-10.914-20.66l-4.633-8.914l0.011-0.293l-0.355-9.664c0.058-0.469,0.137-0.914,0.191-1.383l0.024-0.015L241.51,2.857
		c1.282-1.25-0.05-3.363-1.73-2.746l-18.289,6.722l-1.43,0.531l-11.84,4.36L180.46,50.926l-12.058,17.031l-2.054,4.438l-0.363,0.77
		c-9.145,2.977-31.535,0.043-42.594,8.817c-7.157,5.702,10.199,19.984,37.671,23.53c5.43,8.07,4.77,13.266,4.77,13.266
		l-7.278,10.141c-0.496,0.684-0.144,1.656,0.668,1.887l6.063,1.652c0,0,6.59,9.386,5.762,13.934c-0.059,0.301,0.14,0.606,0.23,0.91
		c0.007,0.031,0.011,0.058,0.019,0.086c1.398,4.23,15.699,8.336,24.355,3.242c3.543,2.43,3.766,2.793,5.653,5.449
		c1.652,2.309,2.445,5.301,2.664,8.574c-7.622,9.305-18.168,21.738-22.742,25.106c-5.266,3.874-14.102,14.238-18.996,20.183
		c-2.176,2.649-2.676,6.282-1.293,9.422l2.137,4.863c-4.418,4.762-9.195,10.086-14.317,16.012
		c-9.902,2.863-68.534,49.098-69.925,49.094c-1.664,0.004-7.657-0.066-12.809,0.187c-0.66-0.34-1.614-0.805-2.801-1.14
		c-0.172-0.09-0.371-0.141-0.602-0.149c-1.406-0.305-3.066-0.359-4.898,0.297c-1.473,0.527-2.668,1.699-3.59,3.054l-44.782-15.25
		c-2.836-0.957-5.894,0.602-6.851,3.434c-0.938,2.816,0.598,5.894,3.434,6.832l49.519,16.946c0.282,1.262,0,2.37,1.023,2.874
		c1.438,0.711,4.817,0.11,5.531-0.633l1.45,0.492c0.527,0.539,0.965,1.27,0.953,1.602c-0.027,0.653,0.57,1.981,1.562,1.696
		c0.559-0.165,2.024-0.809,3.192-1.344l39.762,13.606l27.894,9.66c-7.504,3.691-28.73,15.855-29.863,29.546
		c-1.274,15.606,15.011,36.5,44.113,38.961c39.617,3.39,98.078,59.406,98.078,59.406c-3.382,19.437-2.922,24.015,1.68,22.906
		c4.625-1.125,21.812-6.953,26.976-5.453c5.164,1.519,16.078,5.637,19.27,7.508c3.191,1.89,12.098,12.113,13.817,18.054
		c0.91,3.187,0.465,16.203,4.816,5.301c4.355-10.922,0.551-13.66-1.606-24.824c-2.172-11.184,0.863-21.492-5.582-23.711
		c-6.43-2.214-8.226-6.203-5.653-5.453c2.59,0.75,14.723,7.11,16.625,8.496c1.902,1.39,8.118,4.965,8.137,10.84
		c0.008,6.183,6.321,19.102,7.305,10.664c1.629-13.73-1.238-33.985-4.988-38.051c-3.754-4.066-12.641-10.293-16.422-13.695
		c-3.774-3.422-6.887-6.812-6.786-9.414c0.106-2.598,2.863-6.402,2.863-6.402s-6.117-10.031-10.742-8.926
		c-4.602,1.129-29.981-0.539-33.219-1.332c-3.214-0.778-13.648-1.195-16.922-0.68c-3.289,0.531-5.398,4.359-5.398,4.359
		s-10.23-4.988-14.699-7.773c-3.652-2.282-20.117-13.07-25.918-16.875c-0.985-0.68-1.625-1.137-1.883-1.352
		c1.778-0.054,43.778-1.332,52.035-0.37c8.453,0.988,24.086,1.613,30.434,5.785c6.351,4.168,29.511,12.281,37.171,16.504
		c7.262,4.004,131.039,82.25,156.82,99.781c1.367,0.942,2.508,1.738,3.238,2.281c0.004-0.007,0.008-0.015,0.011-0.023
		c0.039,0.027,0.098,0.07,0.133,0.094c19.985-41.148,28.438-79.866,29.07-102.394C509.736,405.117,509.748,404.968,509.752,404.835z
		 M90.179,303.824c1.23-2.117,2.414-4.019,2.414-4.019l0.004-0.004c7.202-2.317,63.98-33.894,69.562-44.019
		c3.461-1.309,7.742-3.711,11.981-6.383l0.262,0.598c12.519,2.558,21.714,3.902,28.386,4.359
		c8.051,17.301,13.523,42.95-14.554,56.703c-3.094,1.519-20.554,8.27-35.535,14.086l-52.347-17.824L90.179,303.824z" style="fill: rgb(75, 75, 75);"></path>
</g>
</svg>
